<svg id="Layer_1" data-name="Layer 1" xmlns="http://www.w3.org/2000/svg" viewBox="0 0 232.52 207.46"><title>chat-icon</title><g id="ahJSD0.tif"><path d="M.06,108.12c0-27.88-.1-55.76,0-83.64C.18,7.28,7.27.11,24.43.08q92.13-.15,184.27,0c16.43,0,23.64,7.31,23.71,23.79q.22,57.57,0,115.16c-.06,17.47-6.61,23.92-24.38,24-43.64.13-87.28.22-130.92-.06-12-.07-21.81,3-30,12.38a290.53,290.53,0,0,1-27.48,27.33c-3.41,3-10.14,5.86-13.36,4.4S.41,198.73.33,194.19C-.19,165.51.06,136.81.06,108.12ZM10,200.41c12-12.28,22-21.72,31-32,9.3-10.65,20.48-14.36,34.33-14.22,44.05.42,88.1,0,132.16.27,11.07.08,16.11-3.41,15.95-15.37-.52-38-.43-76,0-114,.11-11.32-4-16-15.61-15.93q-91.54.45-183.09,0C13,9.05,9.05,13.38,9.13,24.85c.38,54.56.16,109.13.19,163.69C9.32,191.25,9.61,194,10,200.41Z"/></g></svg>