<svg id="Layer_1" data-name="Layer 1" xmlns="http://www.w3.org/2000/svg" viewBox="0 0 450.5 501.52"><title>physics-logo</title><g id="AUcehc.tif"><path d="M311.57,98.81c19.82-4.37,39.24-7.62,59-6.85a153.26,153.26,0,0,1,30.13,3.87c38.42,9.33,56,39.4,46,77.72-5.19,19.84-15.6,37-27.7,53.28-5.86,7.86-12.31,15.29-18.66,23.14,6.25,7.71,12.83,15.38,18.9,23.43,11.68,15.5,21.7,32,27.43,50.69,12.6,41.16-6.21,72.91-48.31,81.65-22.56,4.67-45.07,3.2-67.56-.44-6.07-1-12.09-2.2-18.65-3.41-.93,2.58-1.89,5.16-2.8,7.76-7.91,22.59-17.54,44.35-33,62.86a107,107,0,0,1-19.18,18.09C236.05,505.74,212,505,191.32,489.33c-16-12-27-28.05-35.63-45.69-6.55-13.42-11.93-27.4-17.91-41.31-10.38,1.59-21.32,3.54-32.33,4.89-19.14,2.35-38.24,2.33-57.08-2.49C10.49,395.05-7.3,364.87,2.78,327c6.62-24.86,20.88-45.51,36.92-65.09,3.15-3.85,6.48-7.57,9.56-11.17-8.1-10.63-16.43-20.8-23.9-31.57C14.58,203.62,5.67,187,2.43,168.09-3.69,132.27,14,105.61,49.49,96.76c23.77-5.94,47.61-4.35,71.44-.52,5.89.94,11.74,2.11,17.53,3.16,4.36-10.82,8.34-21.57,13-32,6.58-14.81,14.45-29,25.45-41a109.11,109.11,0,0,1,19-16.84C215.4-3.67,237.2-3,256.56,10.59c17.13,12,28.66,28.72,37.71,47.1,5.94,12.06,10.58,24.75,15.8,37.16C310.57,96.05,311,97.28,311.57,98.81Zm-6,152.11c-.51-12.88-1.07-26-1.52-39.16-.11-3.26-1.23-5.54-4.23-7.23-23.73-13.41-47.36-27-71.13-40.31a8.05,8.05,0,0,0-6.37-.05,527.35,527.35,0,0,0-71.56,40.53c-1.9,1.29-4,4-4,6.11-.25,26.62-.13,53.24-.13,79.85a7.55,7.55,0,0,0,4.27,7.19c23.49,13.17,46.87,26.51,70.45,39.51a9.92,9.92,0,0,0,7.82,0,542,542,0,0,0,70.36-39.62,9.16,9.16,0,0,0,4.56-8.12C304.49,276.82,305.06,264,305.57,250.92ZM69,229.44c17-13.51,33.68-26.72,50.23-40.1,1.19-1,1.71-3.11,2-4.8,1.36-8.71,2.38-17.47,3.82-26.17,1.57-9.47,3.48-18.89,5.28-28.55a25.92,25.92,0,0,0-3.47-1c-11.69-1.63-23.35-3.75-35.1-4.66-15.18-1.18-30.34-.36-44.7,5.54C31.9,135.9,26.19,145.91,28.38,162a42,42,0,0,0,1.89,7.74C38.22,193.16,53.16,212,69,229.44ZM320.58,372.26c18.5,3.78,36.94,6.7,55.64,5a104.92,104.92,0,0,0,26.19-5.64c15-5.45,20.2-14.78,18.82-30.66a39.46,39.46,0,0,0-1.61-7.8c-3.87-12.89-10.32-24.54-18.24-35.29-6.86-9.31-14.32-18.19-21.4-27.12-11.94,10-22.47,20.08-34.34,28.24-11.13,7.67-19,16.06-17.81,30.4a2.13,2.13,0,0,1-.1.49Zm-.4-242.95c.17,1.63.21,2.44.34,3.24,3,17.72,5.84,35.45,9,53.14a9.52,9.52,0,0,0,3.1,5.21c4.74,3.93,9.89,7.36,14.66,11.26,11,9,21.95,18.21,33.3,27.64,5.12-6.14,10.55-12,15.24-18.45,5.48-7.52,10.94-15.18,15.26-23.38a112.92,112.92,0,0,0,9.64-24.48c4.08-16.1-2.31-27.51-17.68-34a51.21,51.21,0,0,0-5.16-1.85c-17-5.06-34.24-4.53-51.53-2.47C337.62,126.26,329,127.91,320.18,129.31ZM130,372.29c-2.59-15.19-6.2-29.52-7.14-44-.78-12-5.6-19.38-15.26-26.08-13-9.06-24.81-20-37.52-30.39-4.79,5.71-9.9,11.4-14.57,17.43C44.15,303.91,34,319.32,29.76,337.74c-3.78,16.28,2.48,28,18,34.27a56.82,56.82,0,0,0,8.52,2.76C81,380.49,105.47,377.05,130,372.29Zm36.39,23.06c1.65,4.57,3.07,9.72,5.31,14.48,5,10.52,9.71,21.22,15.72,31.13a93.31,93.31,0,0,0,16.1,19.57C218,474,232.91,474,247.58,460.69c19.5-17.74,28.84-41.38,37.06-65.35-.62-.66-.8-1-1.07-1.11-18.66-7.05-37.31-14.11-56-21a8,8,0,0,0-5.18.27C203.91,380.61,185.52,387.86,166.39,395.35ZM284.1,105.14C278.63,88.42,272,71.85,261.52,57.33a104.14,104.14,0,0,0-18.25-19.6c-11.27-9.15-23.71-9.07-35.46-.54a77.41,77.41,0,0,0-13.7,13c-10.79,12.92-17.89,28-23.81,43.6-1.57,4.13-3,8.32-4.39,12.3a10.88,10.88,0,0,0,1.35.94c18.36,6.88,36.72,13.78,55.11,20.57a6.47,6.47,0,0,0,4.21.06C245.63,120.29,264.62,112.8,284.1,105.14ZM90.57,251.26l27.14,22.89V228.21Zm242.49-22.89v45.12l26.44-22.65ZM293.24,365.54c2.15-11.27,4.18-21.87,6.38-33.42l-38.42,22.6Zm-135.63-.06,31.84-10.85-38.22-21.94C153.44,344,155.43,354.25,157.61,365.48ZM293.19,136.32l-31,10.54,37.22,21.53C297.2,157,295.25,147,293.19,136.32Zm-135.94-.13c-2.05,10.69-3.93,20.51-6,31.23l36.19-21.1Z" style="fill:#ffffff"/></g></svg>