<svg id="Layer_1" data-name="Layer 1" xmlns="http://www.w3.org/2000/svg" viewBox="0 0 400.54 383.82"><title>star-filled</title><g id="RqmO34.tif"><path d="M382.43,159.08c.39,6.18-2.66,11.22-7.21,15.63-22.3,21.68-44.53,43.43-67,65-3.21,3.09-4.18,6-3.4,10.39,5.46,30.77,10.6,61.59,16,92.38,1.63,9.32-1.13,16.92-8.64,22.45-7.26,5.34-15.18,5.6-23.17,1.41q-41.91-22-83.77-44.14c-3.42-1.81-6.22-2.12-9.75-.22-20.87,11.18-41.83,22.17-62.77,33.2q-10.88,5.73-21.8,11.36c-8.24,4.27-16.14,3.51-23.51-2s-9.38-13.1-7.89-21.83c5.32-31.26,10.6-62.53,16.13-93.75.68-3.87-.46-6.23-3.07-8.75-22.35-21.63-44.5-43.47-67-65-7.22-6.9-9.53-14.85-6.67-23.93,2.81-8.92,9.66-13.39,19-14.7,30.63-4.32,61.22-9,91.85-13.28,4.34-.62,7-2.25,9-6.33,12.92-26.8,26.06-53.49,39.21-80.17,3.89-7.88,8.3-15.17,18.22-16.8,9.3-1.52,18.52,2.42,23,11C225,42.2,230.49,53.52,236.07,64.81c8.67,17.55,17.37,35.09,25.84,52.75,1.73,3.6,4.13,5.16,7.92,5.7Q316.9,130,363.93,137C375.53,138.68,382.48,147,382.43,159.08Z" style="fill:#ffb808"/></g><g id="_2XUxKG.tif" data-name="2XUxKG.tif"><path d="M400.49,152.81c.48,6.87-2.92,12.55-8.05,17.52-24.49,23.79-48.9,47.68-73.5,71.36-3.36,3.24-4.47,6.24-3.64,10.94,6,33.94,11.74,67.94,17.6,101.91,1.72,10-1.09,18.22-9.23,24.25-8,5.88-16.65,6.43-25.42,1.84q-46-24.09-92-48.41c-3.89-2.07-7.05-2.51-11.14-.31-22.59,12.15-45.32,24-68,36-8.25,4.35-16.56,8.6-24.81,13-8.91,4.69-17.38,3.71-25.34-2.08-8.15-5.93-10.6-14.24-9-23.85,5.84-34.48,11.69-69,17.78-103.4.71-4-.45-6.53-3.18-9.18Q44.71,205.66,7,168.83c-6.94-6.76-8.47-15-5.66-23.91s9.06-14.25,18.18-16c6.54-1.24,13.15-2.11,19.74-3.06,28.18-4.1,56.34-8.24,84.54-12.19,4.6-.64,7.25-2.69,9.29-6.93,14.2-29.4,28.64-58.69,43.06-88C180,10.89,184.35,3.41,193.76.91c11.16-3,22.2,1.45,27.56,11.69,6.42,12.24,12.44,24.69,18.57,37.08,9.44,19.12,18.92,38.23,28.14,57.46,1.87,3.89,4.28,5.84,8.53,6.44,30.33,4.3,60.64,8.76,90.95,13.18,4.78.7,9.57,1.34,14.32,2.23C392.86,131.06,400.48,140.63,400.49,152.81ZM200.39,24.24c-1.71,3.21-2.77,5.07-3.71,7q-24.27,49.05-48.44,98.14c-1.71,3.48-3.83,5.23-7.81,5.78-31.83,4.4-63.62,9-95.42,13.6-6.51.94-13,2-20.22,3.2a36,36,0,0,0,2.62,3.44c25.47,24.94,51,49.79,76.37,74.86,3.76,3.72,8.76,6.62,7.42,14-6.69,36.7-12.84,73.5-19.15,110.26-.23,1.33-.21,2.71-.37,5,3.63-1.76,6.32-3,8.93-4.35,31.41-16.49,62.85-32.93,94.17-49.61,4.18-2.23,7.41-2.09,11.53.09,32.22,17.12,64.54,34,96.85,51,1.78.93,3.72,1.56,6.29,2.62-.28-2.34-.36-3.64-.58-4.91-6.21-36.44-12.35-72.9-18.76-109.31-.82-4.66.15-7.8,3.49-11.06q39.16-38.22,78.06-76.7c1.44-1.41,2.7-3,4.68-5.25-5.4-.88-9.64-1.62-13.89-2.24-33.94-4.9-67.88-9.86-101.84-14.56-4.22-.59-6.33-2.53-8.1-6.15q-24.09-49.14-48.44-98.14C203.14,29,202.05,27.23,200.39,24.24Z" style="fill:#d19000"/></g></svg>